Coordinates
version=1
nRows=21
nColumns=12
inDegrees=yes

Units are S.I. units (second, meters, Newtons, ...)
Angles are in degrees

endheader
time	SC_y	SC_z	SC_x	AC_y	AC_z	AC_x	GH_y	GH_z	GH_yy	EL_x	PS_y
       0.0              -23.61         -0.421          15.68          54.99          -18.8          4.028          151.5          51.49         -74.46          91.17          133.1
   0.02018              -23.61         -0.421          15.68          54.99          -18.8          4.027          151.4          51.49         -74.43          91.16          133.1
   0.04036               -23.6        -0.4209          15.69          54.98          -18.8          4.026          151.4           51.5         -74.39          91.15          133.1
   0.06053               -23.6        -0.4209          15.69          54.98         -18.79          4.025          151.4           51.5         -74.35          91.14          133.0
   0.08071               -23.6        -0.4208           15.7          54.97         -18.79          4.023          151.4          51.51         -74.32          91.13          133.0
    0.1009               -23.6        -0.4207           15.7          54.97         -18.79          4.022          151.4          51.51         -74.27          91.12          133.0
    0.1211               -23.6        -0.4207           15.7          54.96         -18.79           4.02          151.4          51.52         -74.23          91.11          133.0
    0.1412               -23.6        -0.4206          15.71          54.96         -18.79          4.019          151.4          51.52         -74.18           91.1          133.0
    0.1614               -23.6        -0.4205          15.71          54.95         -18.79          4.017          151.4          51.53         -74.13          91.08          133.0
    0.1816               -23.6        -0.4204          15.72          54.95         -18.79          4.015          151.3          51.53         -74.08          91.07          133.0
    0.2018              -23.59        -0.4203          15.73          54.94         -18.79          4.014          151.3          51.54         -74.02          91.06          132.9
     0.222              -23.59        -0.4202          15.73          54.94         -18.79          4.011          151.3          51.55         -73.96          91.04          132.9
    0.2421              -23.59        -0.4201          15.74          54.93         -18.78          4.009          151.3          51.55         -73.89          91.02          132.9
    0.2623              -23.59          -0.42          15.75          54.92         -18.78          4.007          151.3          51.56         -73.82           91.0          132.9
    0.2825              -23.58        -0.4199          15.76          54.91         -18.78          4.004          151.2          51.57         -73.74          90.98          132.9
    0.3027              -23.58        -0.4198          15.77           54.9         -18.78          4.001          151.2          51.58         -73.65          90.96          132.8
    0.3228              -23.58        -0.4196          15.78          54.89         -18.78          3.998          151.2          51.59         -73.56          90.94          132.8
     0.343              -23.58        -0.4195          15.79          54.88         -18.78          3.995          151.2           51.6         -73.46          90.91          132.8
    0.3632              -23.57        -0.4193           15.8          54.87         -18.77          3.991          151.1          51.61         -73.34          90.89          132.7
    0.3834              -23.57        -0.4191          15.81          54.86         -18.77          3.987          151.1          51.63         -73.22          90.86          132.7
    0.4036              -23.57        -0.4189          15.83          54.84         -18.77          3.983          151.0          51.64         -73.09          90.82          132.7
